<svg width="190" height="190" viewBox="0 0 190 190" fill="none" xmlns="http://www.w3.org/2000/svg">
<path d="M95 190C147.467 190 190 147.467 190 95C190 42.533 147.467 0 95 0C42.533 0 0 42.533 0 95C0 147.467 42.533 190 95 190Z" fill="#77DDD4" fill-opacity="0.5"/>
<mask id="mask0" mask-type="alpha" maskUnits="userSpaceOnUse" x="41" y="38" width="108" height="106">
<path d="M41.9775 38.7703H148.605V143.193H41.9775V38.7703Z" fill="white"/>
</mask>
<g mask="url(#mask0)">
<path fill-rule="evenodd" clip-rule="evenodd" d="M105.707 49.8426C102.791 47.7532 100.144 45.8518 97.4927 43.9565C96.0289 42.9081 95.3836 42.902 93.9431 43.927C91.5255 45.6477 89.1141 47.3758 86.7038 49.1052C86.447 49.2895 86.2159 49.5071 85.8091 49.8426H105.707ZM57.48 70.7874C54.0668 73.6315 50.8503 76.3133 47.5367 79.0763C50.8847 81.312 54.1012 83.4592 57.48 85.7146V70.7874ZM142.993 79.0616C139.67 75.9864 136.452 73.0096 133.087 69.8963V85.5585C136.451 83.3535 139.661 81.2469 142.993 79.0616ZM82.981 108.018C70.7491 99.7913 58.6992 91.6879 46.4231 83.4322C46.3813 84.1733 46.3445 84.5347 46.3432 84.896C46.3396 87.4538 46.3432 90.0102 46.3432 92.568C46.3432 107.008 46.3371 121.449 46.3568 135.891C46.3568 136.547 46.5817 137.203 46.7439 138.098C58.9499 127.967 70.8892 118.055 82.981 108.018ZM143.53 137.869C143.696 137.849 143.861 137.828 144.027 137.807C144.397 133.344 144.147 128.858 144.193 124.383C144.241 119.874 144.204 115.364 144.204 110.853V97.209V83.4961C131.746 91.6941 119.581 99.6979 107.286 107.788C119.44 117.875 131.485 127.871 143.53 137.869ZM137.599 138.745C137.134 138.324 136.896 138.093 136.64 137.881C125.968 129.02 115.287 120.173 104.64 111.284C103.718 110.514 103.062 110.495 102.091 111.17C99.6657 112.86 97.1633 114.438 94.7027 116.053C92.2888 114.415 89.94 112.859 87.6392 111.235C86.9767 110.767 86.56 110.749 85.9111 111.289C75.2844 120.146 64.6344 128.973 53.9906 137.808C53.6956 138.054 53.4178 138.319 52.9422 138.745H137.599ZM61.9784 54.3681C61.9452 54.6274 61.901 54.8081 61.901 54.9888C61.8973 65.8956 61.8899 76.8013 61.9292 87.7057C61.9305 88.1199 62.2943 88.6767 62.6556 88.9237C73.0819 96.0463 83.5353 103.132 93.9653 110.248C94.5675 110.659 94.9645 110.631 95.5495 110.245C106.309 103.145 117.081 96.0635 127.861 88.9962C128.421 88.63 128.667 88.2465 128.665 87.5545C128.641 76.9119 128.649 66.2693 128.647 55.6279V54.3681H61.9784ZM95.2693 143.159C79.2863 143.159 63.3046 143.139 47.3228 143.193C45.9045 143.198 45.1768 142.413 44.2968 141.591C42.785 140.175 41.9763 138.502 41.9775 136.415C41.9861 118.064 41.9849 99.7126 41.98 81.3624C41.9788 79.0247 42.8994 77.1676 44.7012 75.6841C48.7928 72.3139 52.8684 68.9229 56.9121 65.4937C57.2686 65.1914 57.5021 64.551 57.5095 64.0619C57.5635 60.9412 57.5303 57.8193 57.539 54.6987C57.5476 51.6481 59.3199 49.9028 62.3951 49.9028C67.2831 49.9004 72.1724 49.92 77.0605 49.877C77.648 49.8721 78.324 49.6558 78.8033 49.3166C83.0449 46.3311 87.2471 43.2916 91.4678 40.2754C94.2762 38.2683 97.1117 38.2683 99.9226 40.2767C104.145 43.2916 108.347 46.3311 112.59 49.3166C113.069 49.6546 113.744 49.8709 114.332 49.877C118.994 49.9225 123.656 49.8979 128.319 49.9053C131.173 49.909 132.973 51.6653 133.006 54.5279C133.037 57.2343 133.037 59.942 132.991 62.6496C132.978 63.4658 133.204 64.041 133.823 64.6039C138.025 68.4214 142.202 72.266 146.363 76.1302C147.872 77.5289 148.571 79.2963 148.568 81.3673C148.559 94.6427 148.566 107.917 148.567 121.192C148.567 126.118 148.459 131.047 148.602 135.969C148.691 139.003 147.091 140.986 145.024 142.753C144.586 143.125 143.753 143.142 143.102 143.143C127.158 143.164 111.213 143.159 95.2693 143.159Z" fill="black"/>
</g>
<path d="M66.6875 62.4514H123.842" stroke="black" stroke-width="2.4"/>
<path d="M66.6875 71.5123H123.842" stroke="black" stroke-width="2.4"/>
<path d="M66.6875 80.5745H123.842" stroke="black" stroke-width="2.4"/>
<path d="M66.6875 89.6354H123.842" stroke="black" stroke-width="2.4"/>
<path d="M72.8887 98.5533L117.641 98.8385" stroke="black" stroke-width="2.4"/>
</svg>
