<svg width="190" height="190" viewBox="0 0 190 190" fill="none" xmlns="http://www.w3.org/2000/svg">
<path d="M95 190C147.467 190 190 147.467 190 95C190 42.533 147.467 0 95 0C42.533 0 0 42.533 0 95C0 147.467 42.533 190 95 190Z" fill="#5873BF" fill-opacity="0.5"/>
<path fill-rule="evenodd" clip-rule="evenodd" d="M126.632 144.615H62.1027C57.4229 144.615 53.6289 140.816 53.6289 136.129V52.9205C53.6289 48.2345 57.4229 44.4354 62.1027 44.4354H126.632C131.311 44.4354 135.105 48.2345 135.105 52.9205V136.129C135.105 140.816 131.311 144.615 126.632 144.615Z" stroke="black" stroke-width="2.4"/>
<path fill-rule="evenodd" clip-rule="evenodd" d="M72.3753 80.0747C70.1924 80.0747 68.7286 78.6089 68.7286 76.7813C68.7286 74.8842 70.1924 73.4172 72.3753 73.4172C74.5181 73.4172 75.9855 74.8842 75.9855 76.7813C75.9855 78.6089 74.5181 80.0747 72.3753 80.0747ZM74.7334 53.2657C79.7016 53.2657 83.1695 55.9499 83.1695 60.9247C83.1695 65.5426 79.8452 68.0489 75.1617 68.0842L74.9841 70.7684H69.6217L69.4416 64.1109H71.588C74.9488 64.1109 77.2717 63.5017 77.2364 60.8906C77.2364 59.2787 76.2362 58.2759 74.6641 58.2759C72.9107 58.2759 71.9445 59.3481 71.9445 60.9954H66.1903C66.082 56.7017 69.0863 53.2657 74.7334 53.2657Z" fill="black"/>
<path d="M65.8428 90.5396H122.427" stroke="black" stroke-width="2.4"/>
<path d="M65.8428 99.522H122.427" stroke="black" stroke-width="2.4"/>
<path d="M65.8428 108.505H122.427" stroke="black" stroke-width="2.4"/>
<path d="M65.8428 117.488H122.427" stroke="black" stroke-width="2.4"/>
<path d="M65.8428 126.47H122.427" stroke="black" stroke-width="2.4"/>
</svg>
