<svg width="185" height="185" viewBox="0 0 185 185" fill="none" xmlns="http://www.w3.org/2000/svg">
<path d="M92.5 185C143.586 185 185 143.586 185 92.5C185 41.4137 143.586 0 92.5 0C41.4137 0 0 41.4137 0 92.5C0 143.586 41.4137 185 92.5 185Z" fill="#E9C681"/>
<path fill-rule="evenodd" clip-rule="evenodd" d="M134.849 136.874H53.721C49.1026 136.874 45.3584 133.164 45.3584 128.588V85.5468C45.3584 80.9709 49.1026 77.2612 53.721 77.2612H134.849C139.467 77.2612 143.211 80.9709 143.211 85.5468V128.588C143.211 133.164 139.467 136.874 134.849 136.874Z" fill="#E9C681"/>
<path fill-rule="evenodd" clip-rule="evenodd" d="M134.849 136.874H53.721C49.1026 136.874 45.3584 133.164 45.3584 128.588V85.5468C45.3584 80.9709 49.1026 77.2612 53.721 77.2612H134.849C139.467 77.2612 143.211 80.9709 143.211 85.5468V128.588C143.211 133.164 139.467 136.874 134.849 136.874Z" stroke="black" stroke-width="2.4"/>
<path fill-rule="evenodd" clip-rule="evenodd" d="M134.849 120.477H53.721C49.1026 120.477 45.3584 116.767 45.3584 112.191V69.1502C45.3584 64.5743 49.1026 60.8646 53.721 60.8646H134.849C139.467 60.8646 143.211 64.5743 143.211 69.1502V112.191C143.211 116.767 139.467 120.477 134.849 120.477Z" fill="#E9C681"/>
<path fill-rule="evenodd" clip-rule="evenodd" d="M134.849 120.477H53.721C49.1026 120.477 45.3584 116.767 45.3584 112.191V69.1502C45.3584 64.5743 49.1026 60.8646 53.721 60.8646H134.849C139.467 60.8646 143.211 64.5743 143.211 69.1502V112.191C143.211 116.767 139.467 120.477 134.849 120.477Z" stroke="black" stroke-width="2.4"/>
<path fill-rule="evenodd" clip-rule="evenodd" d="M134.849 103.474H53.721C49.1026 103.474 45.3584 99.7642 45.3584 95.1871V52.146C45.3584 47.5713 49.1026 43.8616 53.721 43.8616H134.849C139.467 43.8616 143.211 47.5713 143.211 52.146V95.1871C143.211 99.7642 139.467 103.474 134.849 103.474Z" fill="#E9C681"/>
<path fill-rule="evenodd" clip-rule="evenodd" d="M134.849 103.474H53.721C49.1026 103.474 45.3584 99.7642 45.3584 95.1871V52.146C45.3584 47.5713 49.1026 43.8616 53.721 43.8616H134.849C139.467 43.8616 143.211 47.5713 143.211 52.146V95.1871C143.211 99.7642 139.467 103.474 134.849 103.474Z" stroke="black" stroke-width="2.4"/>
<path fill-rule="evenodd" clip-rule="evenodd" d="M65.1514 67.2183V71.5729C66.3882 71.3575 67.1628 70.5318 67.1628 69.3956C67.1628 68.2915 66.3594 67.6811 65.1514 67.2183ZM63.1712 62.0083V57.743C62.0268 57.9274 61.3147 58.6032 61.3147 59.7989C61.3147 60.8721 62.0581 61.5158 63.1712 62.0083ZM63.1712 75.6205C58.9635 75.2529 55.899 73.0768 55.7453 69.122H61.376C61.5009 70.3772 62.1205 71.1434 63.1712 71.4801V66.6377C59.8605 65.7775 55.7129 64.8602 55.7129 60.0464C55.7129 56.2106 58.9635 53.944 63.1712 53.6656V51.1814H65.1514V53.6656C69.3927 54.0035 72.115 56.1499 72.3936 60.0464H66.7293C66.6056 58.9102 66.0196 58.2058 65.1514 57.8988V62.6496C68.4633 63.5717 72.7034 64.4604 72.7034 69.2136C72.7034 72.5247 70.0423 75.4373 65.1514 75.6526V78.1345H63.1712V75.6205Z" fill="black"/>
</svg>
