<svg width="446" height="227" viewBox="0 0 446 227" fill="none" xmlns="http://www.w3.org/2000/svg">
<path fill-rule="evenodd" clip-rule="evenodd" d="M307.909 49.333H294.107C292.209 45.9948 288.705 44.2158 284.032 44.2158C276.002 44.2158 270.668 49.7597 270.668 58.4317C270.668 67.6716 276.073 73.0712 285.053 73.0712C291.261 73.0712 295.567 69.8741 297.469 64.2612H281.624V55.3037H308.783V66.6049C306.159 75.2047 297.614 83.8045 284.106 83.8045C268.769 83.8045 257.962 73.3567 257.962 58.4317C257.962 43.5067 268.699 32.9836 284.032 32.9836C296.299 32.9836 305.208 39.0955 307.909 49.333Z" fill="#172DC7"/>
<path fill-rule="evenodd" clip-rule="evenodd" d="M315.065 83.8043H327.908V43.6797H315.065V83.8043ZM313.865 32.8979C313.865 29.1558 316.945 26.2073 321.523 26.2073C326.032 26.2073 329.112 29.1558 329.112 32.8979C329.112 36.5638 326.032 39.5123 321.523 39.5123C316.945 39.5123 313.865 36.5638 313.865 32.8979Z" fill="#172DC7"/>
<path fill-rule="evenodd" clip-rule="evenodd" d="M337.022 54.1293H332.5V44.0005H337.022V42.8607C337.022 32.4484 343.59 27.31 355.997 27.9555V38.2984C351.182 38.0119 349.501 39.4382 349.501 43.6447V44.0005H356.216V54.1293H349.501V83.8044H337.022V54.1293Z" fill="#172DC7"/>
<path fill-rule="evenodd" clip-rule="evenodd" d="M364.514 52.66H359.604V42.6078H364.514V32.9836H376.857V42.6078H384.941V52.66H376.857V68.518C376.857 70.8521 377.864 71.8458 380.611 71.8458H385.014V82.1105H378.734C370.36 82.1105 364.514 78.6389 364.514 68.3774V52.66Z" fill="#172DC7"/>
<path fill-rule="evenodd" clip-rule="evenodd" d="M283.244 97.3564C295.2 97.3564 304.225 104.039 307.089 114.842H293.626C291.549 110.578 287.755 108.444 283.099 108.444C275.579 108.444 270.423 113.988 270.423 122.801C270.423 131.618 275.579 137.162 283.099 137.162C287.755 137.162 291.549 135.028 293.626 130.761H307.089C304.225 141.567 295.2 148.177 283.244 148.177C268.422 148.177 257.962 137.73 257.962 122.801C257.962 107.876 268.422 97.3564 283.244 97.3564Z" fill="#172DC7"/>
<path fill-rule="evenodd" clip-rule="evenodd" d="M333.454 118.074C328.852 118.074 324.682 121.472 324.682 127.779C324.682 134.082 328.852 137.625 333.454 137.625C338.129 137.625 342.226 134.154 342.226 127.848C342.226 121.544 338.129 118.074 333.454 118.074ZM329.858 107.521C335.825 107.521 340.068 110.21 342.226 113.684V108.087H354.522V147.612H342.226V142.015C339.998 145.486 335.755 148.178 329.785 148.178C320.01 148.178 312.171 140.245 312.171 127.779C312.171 115.31 320.01 107.521 329.858 107.521Z" fill="#172DC7"/>
<path fill-rule="evenodd" clip-rule="evenodd" d="M377.244 148.178H364.687V107.951H377.244V114.658C380.11 110.404 384.59 107.521 390.097 107.521V120.567H386.645C380.696 120.567 377.244 122.588 377.244 129.506V148.178Z" fill="#172DC7"/>
<path fill-rule="evenodd" clip-rule="evenodd" d="M414.768 117.376C410.166 117.376 405.995 120.854 405.995 127.306C405.995 133.756 410.166 137.38 414.768 137.38C419.443 137.38 423.54 133.829 423.54 127.377C423.54 120.927 419.443 117.376 414.768 117.376ZM411.172 106.579C416.494 106.579 421.093 109.043 423.54 112.741V93.9685H435.835V147.598H423.54V141.802C421.312 145.497 417.069 148.177 411.172 148.177C401.324 148.177 393.484 140.061 393.484 127.306C393.484 114.548 401.324 106.579 411.172 106.579Z" fill="#172DC7"/>
<path fill-rule="evenodd" clip-rule="evenodd" d="M281.076 191.339H272.071V202.562H281.22C285.357 202.562 287.754 200.68 287.754 197.059C287.754 193.439 285.213 191.339 281.076 191.339ZM280.204 171.649H272.071V182.293H280.204C284.268 182.293 286.52 180.484 286.52 177.008C286.52 173.531 284.268 171.649 280.204 171.649ZM283.399 212.551H259.656V161.73H282.601C292.981 161.73 299.153 166.875 299.153 174.905C299.153 181.059 295.448 185.041 290.51 186.489C296.467 187.719 300.313 192.934 300.313 198.724C300.313 207.122 294.141 212.551 283.399 212.551Z" fill="#172DC7"/>
<path fill-rule="evenodd" clip-rule="evenodd" d="M326.678 182.449C322.076 182.449 317.906 185.848 317.906 192.154C317.906 198.453 322.076 201.999 326.678 201.999C331.353 201.999 335.45 198.529 335.45 192.222C335.45 185.916 331.353 182.449 326.678 182.449ZM323.082 171.894C329.049 171.894 333.292 174.586 335.45 178.056V172.463H347.745V211.982H335.45V206.388C333.222 209.859 328.979 212.551 323.012 212.551C313.234 212.551 305.395 204.619 305.395 192.154C305.395 179.685 313.234 171.894 323.082 171.894Z" fill="#172DC7"/>
<path fill-rule="evenodd" clip-rule="evenodd" d="M384.421 190.709C384.421 185.23 381.343 182.204 376.583 182.204C371.823 182.204 368.742 185.23 368.742 190.709V212.551H356.216V172.33H368.742V177.663C371.235 174.274 375.629 171.894 381.123 171.894C390.571 171.894 396.873 178.239 396.873 189.052V212.551H384.421V190.709Z" fill="#172DC7"/>
<path fill-rule="evenodd" clip-rule="evenodd" d="M405.343 160.036H417.915V189.063L430.341 172.952H445.85L428.8 192.822L445.999 212.551H430.416L417.915 195.945V212.551H405.343V160.036Z" fill="#172DC7"/>
<path fill-rule="evenodd" clip-rule="evenodd" d="M227.47 113.502C227.47 176.185 176.654 227 113.967 227C51.2856 227 0.469727 176.185 0.469727 113.502C0.469727 50.8152 51.2856 0 113.967 0C176.654 0 227.47 50.8152 227.47 113.502Z" fill="#172DC7"/>
<path fill-rule="evenodd" clip-rule="evenodd" d="M92.2135 58.3872L159.712 125.887C164.224 130.399 164.224 137.711 159.712 142.222L123.259 178.677C118.75 183.185 111.435 183.185 106.92 178.677L39.4277 111.177C34.916 106.665 34.916 99.3533 39.4277 94.8416L75.8784 58.3872C80.39 53.8787 87.7051 53.8787 92.2135 58.3872Z" fill="#00C0D1"/>
<path fill-rule="evenodd" clip-rule="evenodd" d="M190.49 110.584L122.115 178.959C117.979 183.091 111.282 183.091 107.149 178.959L69.6367 141.446C65.5039 137.314 65.5039 130.616 69.6367 126.48L138.011 58.1054C142.144 53.9727 148.845 53.9727 152.978 58.1054L190.49 95.6177C194.623 99.7505 194.623 106.451 190.49 110.584Z" fill="white"/>
<path fill-rule="evenodd" clip-rule="evenodd" d="M169.872 75.1525L86.6828 158.342L78.3945 150.05L161.584 66.8643L169.872 75.1525Z" fill="#172DC7"/>
</svg>
